<mxfile host="app.diagrams.net" modified="2022-08-24T03:49:12.037Z" agent="5.0 (Windows NT 10.0; Win64; x64) AppleWebKit/537.36 (KHTML, like Gecko) Chrome/104.0.0.0 Safari/537.36" etag="TUU4vyi84QE2sJb1-02j" version="20.2.7" type="github" pages="2">
  <diagram name="LFU Cache" id="9f46799a-70d6-7492-0946-bef42562c5a5">
    <mxGraphModel dx="1247" dy="786" grid="1" gridSize="10" guides="1" tooltips="1" connect="1" arrows="1" fold="1" page="1" pageScale="1" pageWidth="1100" pageHeight="850" background="none" math="0" shadow="0">
      <root>
        <mxCell id="0" />
        <mxCell id="1" parent="0" />
        <mxCell id="ySNY_wt_mCzb2ITRDZWP-6" value="Cache" style="swimlane;fontStyle=1;align=center;verticalAlign=top;childLayout=stackLayout;horizontal=1;startSize=26;horizontalStack=0;resizeParent=1;resizeParentMax=0;resizeLast=0;collapsible=1;marginBottom=0;" vertex="1" parent="1">
          <mxGeometry x="180" y="130" width="160" height="86" as="geometry" />
        </mxCell>
        <mxCell id="ySNY_wt_mCzb2ITRDZWP-7" value="+ CacheItemHashTable" style="text;strokeColor=none;fillColor=none;align=left;verticalAlign=top;spacingLeft=4;spacingRight=4;overflow=hidden;rotatable=0;points=[[0,0.5],[1,0.5]];portConstraint=eastwest;" vertex="1" parent="ySNY_wt_mCzb2ITRDZWP-6">
          <mxGeometry y="26" width="160" height="26" as="geometry" />
        </mxCell>
        <mxCell id="ySNY_wt_mCzb2ITRDZWP-8" value="" style="line;strokeWidth=1;fillColor=none;align=left;verticalAlign=middle;spacingTop=-1;spacingLeft=3;spacingRight=3;rotatable=0;labelPosition=right;points=[];portConstraint=eastwest;" vertex="1" parent="ySNY_wt_mCzb2ITRDZWP-6">
          <mxGeometry y="52" width="160" height="8" as="geometry" />
        </mxCell>
        <mxCell id="ySNY_wt_mCzb2ITRDZWP-9" value="+ method(type): type" style="text;strokeColor=none;fillColor=none;align=left;verticalAlign=top;spacingLeft=4;spacingRight=4;overflow=hidden;rotatable=0;points=[[0,0.5],[1,0.5]];portConstraint=eastwest;" vertex="1" parent="ySNY_wt_mCzb2ITRDZWP-6">
          <mxGeometry y="60" width="160" height="26" as="geometry" />
        </mxCell>
        <mxCell id="cP1EMUxFPoa-00krsf0B-1" value="CacheItem" style="swimlane;fontStyle=1;align=center;verticalAlign=top;childLayout=stackLayout;horizontal=1;startSize=26;horizontalStack=0;resizeParent=1;resizeParentMax=0;resizeLast=0;collapsible=1;marginBottom=0;" vertex="1" parent="1">
          <mxGeometry x="310" y="350" width="160" height="138" as="geometry" />
        </mxCell>
        <mxCell id="cP1EMUxFPoa-00krsf0B-2" value="+ f" style="text;strokeColor=none;fillColor=none;align=left;verticalAlign=top;spacingLeft=4;spacingRight=4;overflow=hidden;rotatable=0;points=[[0,0.5],[1,0.5]];portConstraint=eastwest;" vertex="1" parent="cP1EMUxFPoa-00krsf0B-1">
          <mxGeometry y="26" width="160" height="26" as="geometry" />
        </mxCell>
        <mxCell id="cP1EMUxFPoa-00krsf0B-11" value="+ field: type" style="text;strokeColor=none;fillColor=none;align=left;verticalAlign=top;spacingLeft=4;spacingRight=4;overflow=hidden;rotatable=0;points=[[0,0.5],[1,0.5]];portConstraint=eastwest;" vertex="1" parent="cP1EMUxFPoa-00krsf0B-1">
          <mxGeometry y="52" width="160" height="26" as="geometry" />
        </mxCell>
        <mxCell id="cP1EMUxFPoa-00krsf0B-12" value="+ field: type" style="text;strokeColor=none;fillColor=none;align=left;verticalAlign=top;spacingLeft=4;spacingRight=4;overflow=hidden;rotatable=0;points=[[0,0.5],[1,0.5]];portConstraint=eastwest;" vertex="1" parent="cP1EMUxFPoa-00krsf0B-1">
          <mxGeometry y="78" width="160" height="26" as="geometry" />
        </mxCell>
        <mxCell id="cP1EMUxFPoa-00krsf0B-3" value="" style="line;strokeWidth=1;fillColor=none;align=left;verticalAlign=middle;spacingTop=-1;spacingLeft=3;spacingRight=3;rotatable=0;labelPosition=right;points=[];portConstraint=eastwest;" vertex="1" parent="cP1EMUxFPoa-00krsf0B-1">
          <mxGeometry y="104" width="160" height="8" as="geometry" />
        </mxCell>
        <mxCell id="cP1EMUxFPoa-00krsf0B-4" value="+ method(type): type" style="text;strokeColor=none;fillColor=none;align=left;verticalAlign=top;spacingLeft=4;spacingRight=4;overflow=hidden;rotatable=0;points=[[0,0.5],[1,0.5]];portConstraint=eastwest;" vertex="1" parent="cP1EMUxFPoa-00krsf0B-1">
          <mxGeometry y="112" width="160" height="26" as="geometry" />
        </mxCell>
        <mxCell id="cP1EMUxFPoa-00krsf0B-5" value="FreqItem" style="swimlane;fontStyle=1;align=center;verticalAlign=top;childLayout=stackLayout;horizontal=1;startSize=26;horizontalStack=0;resizeParent=1;resizeParentMax=0;resizeLast=0;collapsible=1;marginBottom=0;" vertex="1" parent="1">
          <mxGeometry x="640" y="230" width="160" height="78" as="geometry" />
        </mxCell>
        <mxCell id="cP1EMUxFPoa-00krsf0B-6" value="+ CacheItem: List" style="text;strokeColor=none;fillColor=none;align=left;verticalAlign=top;spacingLeft=4;spacingRight=4;overflow=hidden;rotatable=0;points=[[0,0.5],[1,0.5]];portConstraint=eastwest;" vertex="1" parent="cP1EMUxFPoa-00krsf0B-5">
          <mxGeometry y="26" width="160" height="26" as="geometry" />
        </mxCell>
        <mxCell id="cP1EMUxFPoa-00krsf0B-9" value="+ Freq:             int" style="text;strokeColor=none;fillColor=none;align=left;verticalAlign=top;spacingLeft=4;spacingRight=4;overflow=hidden;rotatable=0;points=[[0,0.5],[1,0.5]];portConstraint=eastwest;" vertex="1" parent="cP1EMUxFPoa-00krsf0B-5">
          <mxGeometry y="52" width="160" height="26" as="geometry" />
        </mxCell>
      </root>
    </mxGraphModel>
  </diagram>
  <diagram id="Zidjyle8r2O39piCiIzt" name="Design system">
    <mxGraphModel dx="1247" dy="1886" grid="1" gridSize="10" guides="1" tooltips="1" connect="1" arrows="1" fold="1" page="1" pageScale="1" pageWidth="850" pageHeight="1100" math="0" shadow="0">
      <root>
        <mxCell id="0" />
        <mxCell id="1" parent="0" />
        <mxCell id="VlxrC2Abb-9s3GYBKvlQ-1" style="edgeStyle=orthogonalEdgeStyle;rounded=0;orthogonalLoop=1;jettySize=auto;html=1;entryX=0.5;entryY=0;entryDx=0;entryDy=0;" edge="1" parent="1" source="VlxrC2Abb-9s3GYBKvlQ-2" target="VlxrC2Abb-9s3GYBKvlQ-18">
          <mxGeometry relative="1" as="geometry">
            <mxPoint x="425" y="-530" as="targetPoint" />
            <Array as="points">
              <mxPoint x="165" y="-620" />
              <mxPoint x="425" y="-620" />
            </Array>
          </mxGeometry>
        </mxCell>
        <mxCell id="VlxrC2Abb-9s3GYBKvlQ-2" value="write url api" style="rounded=1;whiteSpace=wrap;html=1;" vertex="1" parent="1">
          <mxGeometry x="105" y="-740" width="120" height="60" as="geometry" />
        </mxCell>
        <mxCell id="VlxrC2Abb-9s3GYBKvlQ-3" style="edgeStyle=orthogonalEdgeStyle;rounded=0;orthogonalLoop=1;jettySize=auto;html=1;" edge="1" parent="1" source="VlxrC2Abb-9s3GYBKvlQ-4" target="VlxrC2Abb-9s3GYBKvlQ-9">
          <mxGeometry relative="1" as="geometry" />
        </mxCell>
        <mxCell id="VlxrC2Abb-9s3GYBKvlQ-4" value="client" style="rounded=1;whiteSpace=wrap;html=1;" vertex="1" parent="1">
          <mxGeometry x="375" y="-1000" width="120" height="60" as="geometry" />
        </mxCell>
        <mxCell id="VlxrC2Abb-9s3GYBKvlQ-5" style="edgeStyle=orthogonalEdgeStyle;rounded=0;orthogonalLoop=1;jettySize=auto;html=1;" edge="1" parent="1" source="VlxrC2Abb-9s3GYBKvlQ-9" target="VlxrC2Abb-9s3GYBKvlQ-2">
          <mxGeometry relative="1" as="geometry">
            <Array as="points">
              <mxPoint x="435" y="-790" />
              <mxPoint x="165" y="-790" />
            </Array>
          </mxGeometry>
        </mxCell>
        <mxCell id="VlxrC2Abb-9s3GYBKvlQ-6" style="edgeStyle=orthogonalEdgeStyle;rounded=0;orthogonalLoop=1;jettySize=auto;html=1;entryX=0.575;entryY=0.033;entryDx=0;entryDy=0;entryPerimeter=0;" edge="1" parent="1" source="VlxrC2Abb-9s3GYBKvlQ-9" target="VlxrC2Abb-9s3GYBKvlQ-11">
          <mxGeometry relative="1" as="geometry">
            <Array as="points">
              <mxPoint x="435" y="-790" />
              <mxPoint x="334" y="-790" />
            </Array>
          </mxGeometry>
        </mxCell>
        <mxCell id="VlxrC2Abb-9s3GYBKvlQ-7" style="edgeStyle=orthogonalEdgeStyle;rounded=0;orthogonalLoop=1;jettySize=auto;html=1;exitX=0.5;exitY=1;exitDx=0;exitDy=0;" edge="1" parent="1" source="VlxrC2Abb-9s3GYBKvlQ-9" target="VlxrC2Abb-9s3GYBKvlQ-13">
          <mxGeometry relative="1" as="geometry">
            <Array as="points">
              <mxPoint x="435" y="-790" />
              <mxPoint x="495" y="-790" />
            </Array>
          </mxGeometry>
        </mxCell>
        <mxCell id="VlxrC2Abb-9s3GYBKvlQ-8" style="edgeStyle=orthogonalEdgeStyle;rounded=0;orthogonalLoop=1;jettySize=auto;html=1;" edge="1" parent="1" source="VlxrC2Abb-9s3GYBKvlQ-9" target="VlxrC2Abb-9s3GYBKvlQ-15">
          <mxGeometry relative="1" as="geometry">
            <Array as="points">
              <mxPoint x="435" y="-790" />
              <mxPoint x="675" y="-790" />
            </Array>
          </mxGeometry>
        </mxCell>
        <mxCell id="VlxrC2Abb-9s3GYBKvlQ-9" value="Webserver" style="rounded=1;whiteSpace=wrap;html=1;" vertex="1" parent="1">
          <mxGeometry x="375" y="-900" width="120" height="60" as="geometry" />
        </mxCell>
        <mxCell id="VlxrC2Abb-9s3GYBKvlQ-10" style="edgeStyle=orthogonalEdgeStyle;rounded=0;orthogonalLoop=1;jettySize=auto;html=1;entryX=0.5;entryY=0;entryDx=0;entryDy=0;" edge="1" parent="1" source="VlxrC2Abb-9s3GYBKvlQ-11" target="VlxrC2Abb-9s3GYBKvlQ-18">
          <mxGeometry relative="1" as="geometry">
            <mxPoint x="425" y="-560" as="targetPoint" />
            <Array as="points">
              <mxPoint x="325" y="-620" />
              <mxPoint x="425" y="-620" />
            </Array>
          </mxGeometry>
        </mxCell>
        <mxCell id="VlxrC2Abb-9s3GYBKvlQ-11" value="read url api" style="rounded=1;whiteSpace=wrap;html=1;" vertex="1" parent="1">
          <mxGeometry x="265" y="-740" width="120" height="60" as="geometry" />
        </mxCell>
        <mxCell id="VlxrC2Abb-9s3GYBKvlQ-12" style="edgeStyle=orthogonalEdgeStyle;rounded=0;orthogonalLoop=1;jettySize=auto;html=1;" edge="1" parent="1" source="VlxrC2Abb-9s3GYBKvlQ-13">
          <mxGeometry relative="1" as="geometry">
            <mxPoint x="425" y="-520" as="targetPoint" />
            <Array as="points">
              <mxPoint x="495" y="-620" />
              <mxPoint x="425" y="-620" />
            </Array>
          </mxGeometry>
        </mxCell>
        <mxCell id="VlxrC2Abb-9s3GYBKvlQ-13" value="register account" style="rounded=1;whiteSpace=wrap;html=1;" vertex="1" parent="1">
          <mxGeometry x="435" y="-740" width="120" height="60" as="geometry" />
        </mxCell>
        <mxCell id="VlxrC2Abb-9s3GYBKvlQ-14" style="edgeStyle=orthogonalEdgeStyle;rounded=0;orthogonalLoop=1;jettySize=auto;html=1;" edge="1" parent="1" source="VlxrC2Abb-9s3GYBKvlQ-15" target="VlxrC2Abb-9s3GYBKvlQ-18">
          <mxGeometry relative="1" as="geometry">
            <mxPoint x="425" y="-560" as="targetPoint" />
            <Array as="points">
              <mxPoint x="675" y="-620" />
              <mxPoint x="425" y="-620" />
            </Array>
          </mxGeometry>
        </mxCell>
        <mxCell id="VlxrC2Abb-9s3GYBKvlQ-15" value="" style="rounded=1;whiteSpace=wrap;html=1;" vertex="1" parent="1">
          <mxGeometry x="625" y="-740" width="120" height="60" as="geometry" />
        </mxCell>
        <mxCell id="VlxrC2Abb-9s3GYBKvlQ-16" value="mongo db" style="shape=cylinder3;whiteSpace=wrap;html=1;boundedLbl=1;backgroundOutline=1;size=15;" vertex="1" parent="1">
          <mxGeometry x="395" y="-485" width="60" height="80" as="geometry" />
        </mxCell>
        <mxCell id="VlxrC2Abb-9s3GYBKvlQ-17" style="edgeStyle=orthogonalEdgeStyle;rounded=0;orthogonalLoop=1;jettySize=auto;html=1;" edge="1" parent="1" source="VlxrC2Abb-9s3GYBKvlQ-18" target="VlxrC2Abb-9s3GYBKvlQ-16">
          <mxGeometry relative="1" as="geometry" />
        </mxCell>
        <mxCell id="VlxrC2Abb-9s3GYBKvlQ-18" value="database caching" style="rounded=1;whiteSpace=wrap;html=1;" vertex="1" parent="1">
          <mxGeometry x="365" y="-570" width="120" height="60" as="geometry" />
        </mxCell>
      </root>
    </mxGraphModel>
  </diagram>
</mxfile>
